<svg xmlns="http://www.w3.org/2000/svg" xml:space="preserve" width="377px" height="477px" version="1.1" style="shape-rendering:geometricPrecision; text-rendering:geometricPrecision; image-rendering:optimizeQuality; fill-rule:evenodd; clip-rule:evenodd"
viewBox="0 0 22.04 27.92">
 <g id="Camada_x0020_1">
  <path fill="white" d="M0 1.05l12.57 -0.96c3.29,-0.26 5.61,0.04 6.95,0.88 1.34,0.84 2.01,2.4 2.01,4.67l0 1.73c0,1.52 -0.37,2.72 -1.1,3.59 -0.74,0.87 -1.87,1.46 -3.38,1.76 1.58,0.19 2.81,0.72 3.68,1.6 0.88,0.88 1.31,2.02 1.31,3.45l0 1.59c0,2.55 -0.69,4.39 -2.07,5.51 -1.38,1.12 -3.91,1.82 -7.58,2.1l-12.39 0.95 0 -26.87zm7.13 5.4l0 4.77 5.06 -0.39c0.77,-0.05 1.32,-0.24 1.64,-0.55 0.33,-0.32 0.5,-0.8 0.5,-1.45l0 -1.09c0,-0.65 -0.17,-1.1 -0.5,-1.37 -0.32,-0.26 -0.87,-0.36 -1.64,-0.3l-5.06 0.38zm0 9.91l0 5.03 5.33 -0.41c0.8,-0.06 1.38,-0.26 1.73,-0.6 0.36,-0.33 0.54,-0.84 0.54,-1.53l0 -1.12c0,-0.69 -0.18,-1.17 -0.54,-1.45 -0.35,-0.28 -0.93,-0.39 -1.73,-0.33l-5.33 0.41z"/>
 </g>
</svg>
