<svg xmlns="http://www.w3.org/2000/svg" xml:space="preserve" width="1000px" height="1000px" version="1.1" style="shape-rendering:geometricPrecision; text-rendering:geometricPrecision; image-rendering:optimizeQuality; fill-rule:evenodd; clip-rule:evenodd"
viewBox="0 0 141.47 141.47">

 <g id="Camada_x0020_1">
  <g id="_2289972566784">
   <path fill="white" d="M125.92 115.15l-3.24 3.63c-0.85,0.95 -1.59,1.5 -2.2,1.64 -0.62,0.14 -1.25,-0.08 -1.9,-0.67l-0.49 -0.44c-0.43,-0.39 -0.67,-0.8 -0.72,-1.23 -0.04,-0.42 0.11,-0.87 0.45,-1.36 -0.5,0.38 -0.99,0.57 -1.49,0.58 -0.49,0.01 -0.94,-0.17 -1.35,-0.54l-0.45 -0.41c-0.73,-0.66 -1.06,-1.32 -1,-1.98 0.07,-0.66 0.58,-1.52 1.53,-2.58l3.19 -3.58 7.67 6.94zm-3.54 0.52l-1.36 -1.23 -1.3 1.46c-0.2,0.22 -0.3,0.42 -0.31,0.59 0,0.17 0.09,0.34 0.28,0.5l0.31 0.28c0.18,0.17 0.36,0.24 0.53,0.22 0.17,-0.02 0.35,-0.14 0.55,-0.36l1.3 -1.46zm-2.82 -2.56l-1.44 -1.29 -1.37 1.54c-0.21,0.23 -0.32,0.43 -0.32,0.62 0,0.18 0.09,0.36 0.29,0.54l0.32 0.29c0.19,0.17 0.38,0.25 0.56,0.22 0.18,-0.02 0.37,-0.15 0.58,-0.38l1.38 -1.54zm-8.38 7.62l-1.75 1.44 3.5 2.67 0.14 -0.12 -1.89 -3.99zm0.57 -5.55l4.25 9.91 -3.29 2.72 -8.78 -6.17 2.29 -1.9 1.5 1.11 2.52 -2.07 -0.78 -1.7 2.29 -1.9zm-6.78 9.24l-2.34 1.25 -0.05 -0.09c-0.18,-0.33 -0.38,-0.51 -0.63,-0.55 -0.24,-0.04 -0.59,0.06 -1.03,0.3l-0.61 0.33c-0.37,0.19 -0.61,0.38 -0.7,0.56 -0.1,0.18 -0.08,0.4 0.06,0.65l0.21 0.4c0.11,0.22 0.25,0.34 0.42,0.37 0.17,0.04 0.47,-0.03 0.91,-0.21l2.1 -0.84c0.78,-0.31 1.44,-0.37 1.98,-0.17 0.55,0.21 1.02,0.68 1.41,1.44l0.3 0.56c0.23,0.43 0.36,0.85 0.4,1.25 0.05,0.41 0,0.79 -0.15,1.14 -0.12,0.3 -0.32,0.58 -0.59,0.82 -0.27,0.24 -0.72,0.53 -1.35,0.86l-1.46 0.78c-0.91,0.49 -1.7,0.68 -2.38,0.56 -0.67,-0.11 -1.2,-0.51 -1.56,-1.21l-0.34 -0.63 2.35 -1.25 0.05 0.1c0.14,0.27 0.31,0.43 0.49,0.47 0.19,0.04 0.45,-0.03 0.78,-0.21l0.56 -0.3c0.39,-0.21 0.63,-0.4 0.73,-0.57 0.1,-0.17 0.09,-0.37 -0.03,-0.59l-0.21 -0.38c-0.17,-0.34 -0.61,-0.37 -1.3,-0.09l0 0 -1.92 0.76c-0.82,0.32 -1.52,0.41 -2.1,0.24 -0.58,-0.16 -1.04,-0.57 -1.39,-1.24l-0.47 -0.87c-0.4,-0.76 -0.49,-1.49 -0.26,-2.2 0.23,-0.71 0.74,-1.27 1.53,-1.7l1.99 -1.06c1.06,-0.57 1.94,-0.8 2.61,-0.68 0.68,0.11 1.23,0.57 1.66,1.37l0.33 0.63zm-10.61 1.94l3.45 9.77 -7.29 2.62 -0.77 -2.18 4.69 -1.68 -0.6 -1.69 -4.56 1.63 -0.66 -1.88 4.55 -1.63 -0.65 -1.85 -4.79 1.72 -0.77 -2.18 7.4 -2.65zm-22.13 8.78l-0.03 -0.3c-0.14,-1.35 0.06,-2.35 0.58,-3.01 0.53,-0.65 1.46,-1.05 2.79,-1.19l0.94 -0.09c1.45,-0.15 2.49,0.06 3.14,0.62 0.65,0.56 1.05,1.62 1.21,3.19l0.22 2.14c0.16,1.57 -0.02,2.69 -0.54,3.37 -0.52,0.69 -1.5,1.1 -2.95,1.25l-0.76 0.08c-1.44,0.15 -2.47,-0.02 -3.1,-0.51 -0.62,-0.48 -1.01,-1.42 -1.15,-2.79l-0.02 -0.2 2.74 -0.29 0.02 0.19c0.05,0.47 0.19,0.79 0.42,0.96 0.24,0.18 0.63,0.23 1.16,0.18 0.6,-0.06 0.98,-0.22 1.15,-0.47 0.18,-0.25 0.22,-0.82 0.13,-1.7l-0.18 -1.7c-0.09,-0.87 -0.24,-1.42 -0.46,-1.63 -0.22,-0.21 -0.63,-0.28 -1.22,-0.22 -0.56,0.06 -0.93,0.2 -1.12,0.44 -0.19,0.23 -0.26,0.61 -0.2,1.15l0.02 0.24 -2.79 0.29zm-2.13 -4l-0.91 10.33 -2.76 -0.25 0.34 -3.86 -3.58 -0.33 -0.35 3.87 -2.75 -0.25 0.91 -10.33 2.76 0.25 -0.36 4.04 3.59 0.32 0.36 -4.04 2.75 0.25zm-13.8 8.84l-2.64 -0.77 1.67 -5.81c0.23,-0.81 0.28,-1.36 0.15,-1.66 -0.13,-0.3 -0.51,-0.54 -1.13,-0.72l-0.49 -0.14c-0.62,-0.18 -1.06,-0.19 -1.33,-0.01 -0.27,0.18 -0.52,0.68 -0.75,1.49l-1.68 5.81 -2.64 -0.77 1.73 -6.01c0.26,-0.9 0.51,-1.54 0.74,-1.92 0.22,-0.39 0.51,-0.7 0.86,-0.93 0.42,-0.27 0.88,-0.42 1.39,-0.44 0.51,-0.02 1.16,0.08 1.95,0.31l1.3 0.39c0.79,0.23 1.4,0.49 1.81,0.78 0.42,0.29 0.73,0.66 0.94,1.11 0.17,0.39 0.25,0.82 0.24,1.28 0,0.45 -0.14,1.12 -0.39,1.99l-1.73 6.02zm-12.61 -9.49l-1.41 -0.65c-0.42,-0.19 -0.73,-0.25 -0.95,-0.17 -0.22,0.08 -0.42,0.32 -0.6,0.71l-0.17 0.36c-0.18,0.4 -0.23,0.72 -0.14,0.94 0.08,0.22 0.33,0.42 0.75,0.61l1.4 0.65 1.12 -2.45zm4.74 -3.71l-4.3 9.42 -3.78 -1.74c-1.45,-0.67 -2.35,-1.31 -2.71,-1.94 -0.36,-0.63 -0.32,-1.43 0.11,-2.39l0.35 -0.75c0.29,-0.64 0.67,-1.07 1.14,-1.29 0.47,-0.22 1.02,-0.23 1.66,-0.03 -0.59,-0.4 -0.95,-0.82 -1.1,-1.27 -0.14,-0.45 -0.08,-0.97 0.19,-1.55l0.88 -1.95 2.57 1.19 -0.78 1.69c-0.18,0.4 -0.23,0.72 -0.14,0.94 0.08,0.21 0.33,0.42 0.75,0.61l1.39 0.65 1.25 -2.75 2.52 1.16zm-18.18 -6.22l0.17 -0.24c0.8,-1.09 1.61,-1.7 2.44,-1.84 0.82,-0.13 1.78,0.2 2.86,1l0.76 0.56c1.17,0.86 1.81,1.72 1.92,2.57 0.11,0.86 -0.3,1.92 -1.23,3.19l-1.26 1.74c-0.92,1.27 -1.8,1.98 -2.64,2.14 -0.84,0.16 -1.85,-0.2 -3.02,-1.06l-0.62 -0.46c-1.17,-0.85 -1.82,-1.67 -1.96,-2.46 -0.14,-0.78 0.19,-1.73 1,-2.85l0.12 -0.16 2.22 1.63 -0.11 0.15c-0.27,0.39 -0.38,0.72 -0.32,1.01 0.06,0.28 0.31,0.59 0.74,0.91 0.48,0.35 0.87,0.49 1.17,0.42 0.29,-0.07 0.7,-0.46 1.22,-1.17l1 -1.38c0.52,-0.71 0.77,-1.22 0.74,-1.53 -0.02,-0.3 -0.28,-0.63 -0.76,-0.98 -0.45,-0.34 -0.82,-0.48 -1.12,-0.43 -0.29,0.04 -0.6,0.28 -0.92,0.72l-0.13 0.19 -2.27 -1.67zm0.93 -4.28l-7.27 7.35 -1.96 -1.96 2.72 -2.75 -2.55 -2.55 -2.72 2.75 -1.96 -1.97 7.27 -7.35 1.96 1.96 -2.84 2.88 2.55 2.55 2.84 -2.87 1.96 1.96zm-15.65 -10.49c-0.49,0.29 -1.01,0.36 -1.56,0.22 -0.54,-0.14 -0.96,-0.46 -1.25,-0.95 -0.29,-0.49 -0.37,-1 -0.23,-1.56 0.14,-0.55 0.45,-0.97 0.94,-1.26 0.48,-0.29 1,-0.36 1.55,-0.22 0.56,0.14 0.98,0.46 1.27,0.94 0.29,0.49 0.36,1.01 0.22,1.56 -0.14,0.55 -0.46,0.97 -0.94,1.27zm-11 -10.62l-1.41 -4.68c-0.37,-1.22 -0.45,-2.14 -0.25,-2.74 0.19,-0.6 0.71,-1.03 1.54,-1.28l0.64 -0.2c0.55,-0.17 1.02,-0.16 1.41,0.02 0.38,0.18 0.69,0.55 0.93,1.09 -0.07,-0.62 0.03,-1.15 0.28,-1.58 0.24,-0.43 0.63,-0.72 1.15,-0.88l0.59 -0.18c0.93,-0.29 1.67,-0.23 2.19,0.17 0.53,0.4 1,1.28 1.41,2.65l1.38 4.6 -9.86 3.01zm1.39 -3.32l1.75 -0.53 -0.57 -1.88c-0.09,-0.29 -0.2,-0.48 -0.34,-0.56 -0.14,-0.09 -0.34,-0.1 -0.58,-0.03l-0.39 0.12c-0.24,0.07 -0.4,0.19 -0.47,0.34 -0.07,0.16 -0.06,0.38 0.03,0.66l0.57 1.88zm3.63 -1.1l1.85 -0.57 -0.6 -1.98c-0.09,-0.3 -0.21,-0.49 -0.36,-0.59 -0.15,-0.1 -0.36,-0.11 -0.61,-0.03l-0.41 0.12c-0.25,0.08 -0.42,0.2 -0.49,0.37 -0.07,0.16 -0.06,0.4 0.03,0.69l0.59 1.99zm-2.27 -11.11l-0.34 -2.25 -4.07 1.66 0.03 0.18 4.38 0.41zm4.44 3.33l-10.64 -1.4 -0.63 -4.23 9.76 -4.43 0.44 2.95 -1.71 0.73 0.49 3.23 1.85 0.2 0.44 2.95zm-4.61 -10.79l0.11 -2.67 0.1 0.01c0.38,0.01 0.64,-0.08 0.79,-0.27 0.16,-0.19 0.25,-0.54 0.27,-1.05l0.03 -0.69c0.01,-0.43 -0.03,-0.72 -0.14,-0.9 -0.1,-0.17 -0.3,-0.27 -0.58,-0.28l-0.45 -0.02c-0.25,-0.01 -0.43,0.05 -0.53,0.19 -0.12,0.12 -0.21,0.42 -0.28,0.89l-0.34 2.25c-0.13,0.83 -0.41,1.44 -0.86,1.81 -0.45,0.37 -1.09,0.53 -1.94,0.5l-0.64 -0.03c-0.48,-0.02 -0.9,-0.11 -1.27,-0.28 -0.37,-0.17 -0.67,-0.4 -0.9,-0.71 -0.2,-0.25 -0.33,-0.57 -0.41,-0.92 -0.07,-0.36 -0.09,-0.9 -0.06,-1.61l0.07 -1.66c0.04,-1.04 0.28,-1.82 0.72,-2.35 0.44,-0.53 1.05,-0.78 1.83,-0.75l0.71 0.03 -0.11 2.67 -0.11 -0.01c-0.31,-0.01 -0.53,0.05 -0.65,0.19 -0.13,0.15 -0.2,0.41 -0.21,0.79l-0.03 0.64c-0.02,0.44 0.02,0.74 0.12,0.91 0.1,0.17 0.27,0.26 0.53,0.27l0.42 0.02c0.38,0.02 0.63,-0.35 0.74,-1.09l0 0 0.31 -2.04c0.14,-0.89 0.42,-1.54 0.86,-1.96 0.43,-0.42 1.02,-0.61 1.76,-0.58l0.99 0.04c0.85,0.03 1.53,0.33 2.02,0.88 0.49,0.56 0.72,1.29 0.68,2.19l-0.09 2.26c-0.05,1.21 -0.3,2.08 -0.73,2.61 -0.44,0.54 -1.11,0.78 -2.02,0.75l-0.71 -0.03zm3.92 -10.2l-10.13 -1.91 1.42 -7.65 2.26 0.42 -0.92 4.92 1.76 0.34 0.89 -4.79 1.95 0.37 -0.89 4.78 1.91 0.36 0.94 -5.03 2.26 0.42 -1.45 7.77zm3.58 -23.62l0.28 0.13c1.22,0.56 1.98,1.24 2.27,2.03 0.29,0.78 0.16,1.79 -0.4,3.02l-0.39 0.85c-0.61,1.34 -1.32,2.14 -2.13,2.42 -0.81,0.27 -1.92,0.08 -3.35,-0.58l-1.94 -0.89c-1.42,-0.66 -2.29,-1.39 -2.61,-2.18 -0.32,-0.8 -0.18,-1.86 0.43,-3.2l0.32 -0.7c0.6,-1.32 1.27,-2.13 2,-2.42 0.74,-0.3 1.73,-0.15 2.98,0.42l0.18 0.09 -1.14 2.51 -0.17 -0.08c-0.43,-0.19 -0.78,-0.23 -1.05,-0.12 -0.26,0.12 -0.51,0.43 -0.73,0.92 -0.25,0.54 -0.31,0.96 -0.19,1.23 0.13,0.28 0.59,0.61 1.39,0.98l1.55 0.71c0.79,0.37 1.34,0.51 1.63,0.42 0.29,-0.08 0.56,-0.4 0.81,-0.94 0.23,-0.51 0.3,-0.91 0.19,-1.19 -0.1,-0.28 -0.39,-0.54 -0.88,-0.76l-0.22 -0.1 1.17 -2.57zm4.39 0.21l-8.33 -6.12 1.63 -2.24 3.12 2.29 2.12 -2.93 -3.11 -2.29 1.63 -2.24 8.32 6.11 -1.63 2.25 -3.25 -2.39 -2.12 2.93 3.25 2.39 -1.63 2.24zm-0.55 -16.15l1.94 -1.96 4.26 4.26c0.6,0.59 1.05,0.9 1.38,0.93 0.32,0.03 0.72,-0.19 1.18,-0.65l0.35 -0.36c0.46,-0.46 0.67,-0.85 0.64,-1.18 -0.02,-0.32 -0.34,-0.78 -0.93,-1.38l-4.27 -4.26 1.94 -1.96 4.42 4.41c0.65,0.66 1.09,1.18 1.32,1.57 0.23,0.39 0.36,0.79 0.39,1.21 0.04,0.5 -0.05,0.98 -0.28,1.43 -0.22,0.46 -0.63,0.99 -1.21,1.57l-0.96 0.97c-0.58,0.59 -1.09,1 -1.55,1.23 -0.45,0.23 -0.93,0.32 -1.42,0.28 -0.42,-0.03 -0.83,-0.16 -1.23,-0.39 -0.39,-0.23 -0.91,-0.66 -1.55,-1.3l-4.42 -4.42zm14.79 -6.4l1.29 -0.86c0.38,-0.25 0.6,-0.5 0.65,-0.73 0.05,-0.22 -0.05,-0.52 -0.29,-0.88l-0.22 -0.33c-0.24,-0.37 -0.48,-0.58 -0.71,-0.62 -0.23,-0.04 -0.53,0.06 -0.91,0.32l-1.29 0.86 1.48 2.24zm0.66 6.01l-5.72 -8.63 3.47 -2.32c1.32,-0.89 2.34,-1.32 3.06,-1.3 0.73,0.02 1.38,0.47 1.96,1.35l0.46 0.7c0.38,0.58 0.55,1.13 0.48,1.65 -0.06,0.52 -0.34,0.99 -0.84,1.43 0.64,-0.29 1.19,-0.38 1.65,-0.27 0.45,0.12 0.86,0.44 1.21,0.98l1.18 1.78 -2.35 1.57 -1.02 -1.55c-0.25,-0.37 -0.49,-0.58 -0.72,-0.62 -0.23,-0.04 -0.53,0.06 -0.91,0.32l-1.28 0.85 1.67 2.52 -2.3 1.54zm14.42 -12.65l0.13 0.27c0.57,1.22 0.71,2.23 0.43,3.03 -0.28,0.79 -1.03,1.47 -2.24,2.05l-0.85 0.4c-1.32,0.62 -2.38,0.77 -3.17,0.46 -0.79,-0.32 -1.52,-1.19 -2.19,-2.61l-0.91 -1.95c-0.67,-1.43 -0.87,-2.55 -0.6,-3.36 0.27,-0.82 1.06,-1.54 2.38,-2.16l0.69 -0.33c1.31,-0.62 2.34,-0.8 3.09,-0.55 0.75,0.25 1.41,1 2,2.26l0.08 0.18 -2.49 1.18 -0.07 -0.17c-0.2,-0.43 -0.44,-0.69 -0.72,-0.77 -0.28,-0.09 -0.67,-0.01 -1.15,0.22 -0.54,0.25 -0.85,0.53 -0.94,0.82 -0.08,0.3 0.07,0.85 0.44,1.65l0.73 1.54c0.37,0.8 0.69,1.27 0.97,1.39 0.28,0.12 0.69,0.06 1.23,-0.2 0.5,-0.24 0.8,-0.5 0.91,-0.78 0.1,-0.28 0.04,-0.67 -0.19,-1.16l-0.1 -0.21 2.54 -1.2zm3.29 3.05l-2.51 -10.06 2.68 -0.68 0.94 3.77 3.49 -0.88 -0.94 -3.77 2.69 -0.67 2.5 10.06 -2.68 0.67 -0.98 -3.93 -3.49 0.88 0.98 3.93 -2.68 0.68zm16.92 -8.36c0,-0.57 0.2,-1.06 0.6,-1.46 0.4,-0.4 0.88,-0.61 1.45,-0.61 0.56,-0.01 1.04,0.19 1.44,0.59 0.41,0.4 0.61,0.88 0.61,1.45 0.01,0.56 -0.19,1.05 -0.59,1.46 -0.41,0.41 -0.89,0.62 -1.45,0.62 -0.57,0 -1.05,-0.19 -1.45,-0.6 -0.4,-0.4 -0.6,-0.88 -0.61,-1.45zm14.73 -4.07l4.72 1.13c1.24,0.3 2.07,0.68 2.49,1.16 0.42,0.47 0.52,1.13 0.32,1.99l-0.15 0.65c-0.14,0.57 -0.38,0.97 -0.73,1.22 -0.35,0.23 -0.81,0.32 -1.4,0.25 0.57,0.26 0.97,0.61 1.22,1.04 0.24,0.44 0.3,0.92 0.17,1.45l-0.14 0.6c-0.22,0.96 -0.64,1.57 -1.25,1.82 -0.61,0.26 -1.6,0.22 -2.98,-0.11l-4.65 -1.11 2.38 -10.09zm2.15 2.88l-0.42 1.79 1.9 0.45c0.28,0.07 0.5,0.07 0.65,-0.01 0.15,-0.08 0.26,-0.25 0.31,-0.49l0.1 -0.41c0.06,-0.24 0.04,-0.43 -0.06,-0.57 -0.1,-0.14 -0.29,-0.24 -0.58,-0.31l-1.9 -0.45zm-0.88 3.71l-0.45 1.89 2.01 0.48c0.3,0.07 0.53,0.07 0.69,-0.02 0.16,-0.08 0.27,-0.25 0.33,-0.51l0.1 -0.42c0.06,-0.26 0.04,-0.46 -0.07,-0.61 -0.1,-0.14 -0.31,-0.25 -0.61,-0.33l-2 -0.48zm10.68 3.68l2.1 0.84 0.63 -4.37 -0.16 -0.06 -2.57 3.59zm-5.1 2.17l6.58 -8.52 3.95 1.59 -1.15 10.71 -2.75 -1.11 0.24 -1.85 -3.02 -1.22 -1.1 1.51 -2.75 -1.11zm11.48 1.52l2.22 1.47 -0.06 0.08c-0.2,0.32 -0.26,0.59 -0.18,0.83 0.09,0.23 0.34,0.48 0.76,0.76l0.58 0.38c0.35,0.24 0.63,0.35 0.83,0.35 0.2,0 0.38,-0.13 0.54,-0.37l0.25 -0.37c0.13,-0.21 0.17,-0.39 0.12,-0.56 -0.06,-0.16 -0.26,-0.39 -0.63,-0.7l-1.74 -1.44c-0.65,-0.54 -1.02,-1.1 -1.1,-1.67 -0.09,-0.58 0.11,-1.22 0.57,-1.94l0.35 -0.53c0.26,-0.41 0.56,-0.73 0.9,-0.96 0.33,-0.23 0.69,-0.37 1.06,-0.41 0.32,-0.04 0.66,0 1,0.13 0.34,0.12 0.81,0.38 1.4,0.77l1.38 0.91c0.87,0.57 1.41,1.18 1.64,1.83 0.22,0.65 0.12,1.31 -0.31,1.97l-0.39 0.59 -2.21 -1.46 0.06 -0.09c0.17,-0.26 0.22,-0.49 0.17,-0.67 -0.06,-0.18 -0.24,-0.37 -0.56,-0.58l-0.53 -0.35c-0.37,-0.25 -0.65,-0.37 -0.85,-0.37 -0.19,-0.01 -0.36,0.1 -0.5,0.31l-0.23 0.36c-0.21,0.32 -0.03,0.72 0.55,1.2l0 0 1.58 1.32c0.69,0.58 1.1,1.15 1.23,1.74 0.14,0.59 0,1.2 -0.41,1.83l-0.54 0.83c-0.47,0.72 -1.06,1.14 -1.79,1.28 -0.73,0.14 -1.46,-0.04 -2.21,-0.53l-1.89 -1.24c-1,-0.67 -1.62,-1.33 -1.85,-1.98 -0.23,-0.65 -0.09,-1.36 0.4,-2.12l0.39 -0.6zm6.83 8.45l6.89 -7.71 5.76 5.21 -1.54 1.72 -3.7 -3.35 -1.19 1.33 3.59 3.26 -1.33 1.48 -3.59 -3.25 -1.3 1.45 3.79 3.43 -1.54 1.71 -5.84 -5.28zm18.36 15.26l-0.25 0.17c-1.12,0.75 -2.09,1.04 -2.91,0.88 -0.82,-0.17 -1.61,-0.81 -2.35,-1.93l-0.52 -0.79c-0.81,-1.22 -1.11,-2.25 -0.92,-3.08 0.19,-0.84 0.94,-1.7 2.25,-2.57l1.77 -1.19c1.31,-0.87 2.38,-1.24 3.22,-1.09 0.84,0.14 1.67,0.82 2.48,2.04l0.42 0.64c0.8,1.22 1.13,2.21 0.99,3 -0.13,0.78 -0.77,1.55 -1.92,2.32l-0.17 0.11 -1.52 -2.3 0.16 -0.11c0.39,-0.26 0.6,-0.54 0.65,-0.83 0.04,-0.28 -0.09,-0.66 -0.39,-1.11 -0.33,-0.5 -0.65,-0.76 -0.95,-0.8 -0.3,-0.04 -0.82,0.19 -1.55,0.68l-1.41 0.94c-0.73,0.49 -1.14,0.88 -1.22,1.18 -0.08,0.29 0.04,0.69 0.37,1.19 0.31,0.46 0.61,0.73 0.91,0.79 0.29,0.06 0.66,-0.06 1.11,-0.36l0.19 -0.13 1.56 2.35zm-2.52 3.71l9.33 -4.41 1.18 2.52 -3.49 1.65 1.53 3.28 3.49 -1.65 1.18 2.52 -9.33 4.41 -1.18 -2.52 3.64 -1.72 -1.53 -3.28 -3.64 1.72 -1.18 -2.52zm14.22 7.75l0.67 2.68 -5.83 1.47c-0.81,0.21 -1.31,0.44 -1.5,0.71 -0.19,0.26 -0.21,0.71 -0.05,1.35l0.12 0.49c0.16,0.63 0.38,1.02 0.67,1.16 0.29,0.14 0.84,0.11 1.66,-0.1l5.83 -1.47 0.67 2.69 -6.04 1.52c-0.89,0.23 -1.57,0.34 -2.02,0.33 -0.44,0 -0.86,-0.1 -1.23,-0.28 -0.44,-0.23 -0.8,-0.56 -1.07,-0.99 -0.28,-0.43 -0.51,-1.04 -0.71,-1.85l-0.33 -1.33c-0.2,-0.8 -0.29,-1.45 -0.24,-1.96 0.03,-0.51 0.2,-0.97 0.48,-1.37 0.25,-0.35 0.57,-0.64 0.97,-0.86 0.4,-0.22 1.04,-0.45 1.91,-0.67l6.04 -1.52zm-2.08 15.96l0.08 1.55c0.03,0.47 0.12,0.78 0.3,0.94 0.17,0.16 0.47,0.22 0.9,0.2l0.4 -0.02c0.43,-0.03 0.73,-0.13 0.88,-0.31 0.16,-0.17 0.22,-0.49 0.2,-0.95l-0.09 -1.56 -2.67 0.15zm-5.48 -2.48l10.3 -0.57 0.22 4.18c0.09,1.59 -0.06,2.7 -0.44,3.31 -0.39,0.62 -1.1,0.96 -2.15,1.01l-0.83 0.05c-0.69,0.04 -1.25,-0.1 -1.66,-0.42 -0.41,-0.32 -0.68,-0.8 -0.8,-1.46 -0.08,0.71 -0.28,1.23 -0.61,1.57 -0.33,0.34 -0.81,0.52 -1.45,0.56l-2.12 0.11 -0.16 -2.83 1.86 -0.1c0.43,-0.03 0.73,-0.13 0.89,-0.31 0.15,-0.17 0.21,-0.49 0.19,-0.95l-0.08 -1.54 -3.01 0.16 -0.15 -2.77zm3.65 19l-0.3 -0.03c-1.34,-0.12 -2.28,-0.5 -2.82,-1.14 -0.53,-0.65 -0.74,-1.64 -0.63,-2.99l0.09 -0.94c0.13,-1.46 0.53,-2.45 1.2,-2.98 0.67,-0.54 1.79,-0.73 3.35,-0.59l2.12 0.19c1.56,0.14 2.63,0.53 3.19,1.17 0.57,0.65 0.79,1.7 0.66,3.16l-0.07 0.76c-0.13,1.45 -0.49,2.44 -1.08,2.96 -0.59,0.53 -1.58,0.73 -2.95,0.61l-0.2 -0.02 0.25 -2.76 0.18 0.02c0.47,0.04 0.81,-0.04 1.03,-0.24 0.21,-0.2 0.34,-0.57 0.39,-1.11 0.05,-0.6 -0.03,-1.01 -0.24,-1.23 -0.22,-0.22 -0.76,-0.36 -1.64,-0.44l-1.69 -0.15c-0.87,-0.08 -1.43,-0.03 -1.68,0.15 -0.25,0.17 -0.39,0.56 -0.45,1.16 -0.05,0.56 0.03,0.95 0.22,1.19 0.19,0.23 0.55,0.37 1.08,0.41l0.24 0.03 -0.25 2.81zm-4.39 1.18l9.9 2.89 -0.77 2.67 -3.7 -1.08 -1.01 3.48 3.71 1.08 -0.77 2.68 -9.9 -2.89 0.77 -2.67 3.87 1.12 1 -3.48 -3.87 -1.12 0.77 -2.68zm-1.54 18.99c0.49,0.29 0.81,0.71 0.95,1.26 0.14,0.55 0.06,1.07 -0.22,1.57 -0.29,0.48 -0.7,0.8 -1.25,0.95 -0.55,0.14 -1.06,0.07 -1.55,-0.22 -0.48,-0.29 -0.8,-0.71 -0.94,-1.26 -0.15,-0.56 -0.08,-1.08 0.21,-1.57 0.28,-0.49 0.7,-0.81 1.25,-0.95 0.55,-0.14 1.06,-0.07 1.55,0.22z"/>
  </g>
 </g>
</svg>
