<?xml version="1.0" encoding="UTF-8"?>
<!DOCTYPE svg PUBLIC "-//W3C//DTD SVG 1.1//EN" "http://www.w3.org/Graphics/SVG/1.1/DTD/svg11.dtd">
<!-- Creator: CorelDRAW 2020 (64 Bit) -->
<svg xmlns="http://www.w3.org/2000/svg" xml:space="preserve" width="1670px" height="2070px" version="1.1" style="shape-rendering:geometricPrecision; text-rendering:geometricPrecision; image-rendering:optimizeQuality; fill-rule:evenodd; clip-rule:evenodd"
viewBox="0 0 1669.87 2070.01">
 
 <g id="Camada_x0020_1">
  <g id="_1450810576096">
   <path fill="#10b981" d="M621.65 629.3c7.21,-54.84 56.33,-94.24 109.16,-101.89 42.6,-3.15 78.59,9.63 109.91,39.15 84.36,-70.06 209.56,-40.94 219.34,67.98 125.63,-5.65 179.54,127.18 97.67,219.09 85.44,86.35 19.63,221.7 -104.19,214.98 -5.83,56.87 -41.54,97.75 -98.12,109.81 -44.83,6.6 -82.36,-1.04 -117.67,-31.57 -63.22,71.93 -205.56,34.4 -214.06,-78.24 -127.32,-5.48 -179.77,-117.61 -100.46,-220.41 -79.17,-96.24 -25.47,-217.84 98.42,-218.9zm116.62 -48.76c-29.98,4.63 -64.2,30.83 -58.97,64.74 6.47,41.93 73.22,49.94 47.23,86.34 -35.75,50.08 -65.47,-49.66 -122.48,-44.23 -59.95,5.7 -90,85.51 -37.3,123.01 22.54,16.04 62.96,0.12 68.65,29.19 8.92,45.63 -52.34,23.3 -80.61,59.73 -43.87,56.53 5.26,114.98 73.46,114.62 31.47,-16.58 58.25,-58.62 86.57,-49.25 28.73,9.49 24.73,42.41 -0.03,53.07 -49.87,21.45 -44.22,88.2 6.1,106.64 31.85,11.66 76.86,0.04 87.78,-35.44 6.97,-22.68 3.4,-75.86 3.37,-101.56l0.03 -264.5c0,-55.52 15.15,-149.63 -73.8,-142.36zm195.36 0c-77.89,6.98 -66.2,73.44 -66.06,128.28l0.05 294.37c-0.01,26.25 -2.07,54.27 0.77,80.25 6.01,55.08 87.88,55.4 116.27,16.83 52.7,-71.62 -52.99,-76.03 -21.98,-122.28 29.16,-43.51 52.37,40.95 112.13,35.95 64.36,-16.63 89.93,-97.67 38.64,-126.54 -20.96,-11.8 -56.8,5.48 -65.74,-25.25 -14.97,-51.39 57.86,-20.94 83.25,-58.74 45.04,-67.03 -44.47,-154.92 -104.86,-94.6 -16.35,16.33 -29.76,49.91 -58.5,32.18 -51.55,-31.84 41.35,-62.9 35.72,-105.78 -4.57,-34.7 -37.3,-54.43 -69.69,-54.67z"/>
   <path fill="white" d="M326.93 452.96c-30.59,6.46 -135.04,-101.2 -144.59,-119.4 -10.58,-20.13 4.08,-38.28 22.24,-45.71 33.03,-2.67 139.3,108.61 147.12,125.13 8.33,17.63 -10.67,33.79 -24.77,39.98z"/>
   <path fill="white" d="M1379.55 462.06c-21.98,0.26 -49.32,-15.65 -39.85,-41.55 8.2,-22.4 100.3,-114.72 130.49,-127.9 22.59,-0.88 45.22,14.23 36.44,40.05 -4.57,13.4 -108.86,120.92 -127.08,129.4z"/>
   <path fill="white" d="M642.46 1857.59c-109.51,-27.01 -99.77,-108.66 -99.64,-195.62l0.09 -131.82c-0.8,-185.14 -41.94,-223.47 -143.25,-349.32 -66.87,-83.06 -104.51,-195.2 -110.42,-301.05 -17.23,-308.58 227.08,-562.05 531.31,-578.01 158.77,-2.65 302.04,51.72 413.74,164.31 177.64,179.07 218.25,497.34 65.24,703.73 -18.44,24.86 -40.34,45.55 -60.66,68.7 -100.67,114.6 -93.17,282.28 -92.53,424.43 0.4,89.71 2.78,171.62 -104.29,194.65 -50.97,69.34 -88.71,188.27 -174.61,209.91 -74.24,13.62 -110.15,-29.91 -146.71,-87.85l-50.35 -80.48c-8.92,-14.09 -16.99,-28.89 -27.92,-41.58zm178.09 -1490.79c-384.66,11.67 -611.78,477.02 -363.98,780.18 21.41,26.19 46.64,47.19 65.9,75.42 53.79,78.81 81.1,178.89 84.96,273.7 220.34,0 276.24,0 474.21,0 5.48,-98.73 37.02,-216.44 101.3,-293.55 35.7,-42.82 65.1,-64.48 93.23,-116.89 97.72,-182.11 55.06,-414.27 -79.44,-565.36 -84.54,-94.97 -246.88,-170.17 -376.18,-153.5zm-211.34 1192.38c-5.12,9.1 -1.88,80.69 -1.78,96.23l145.17 -0.06c22.92,0.01 49.14,-2.58 71.67,1.39 31.82,5.61 30.76,56.36 -2.22,62.35 -22.14,4.02 -49.27,1.04 -71.86,0.93l-142.76 -0.11c-0.43,82.63 56.81,72.67 121.19,72.4l109.32 -0.04 123.74 0.08c106.28,-0.02 120.56,2.36 120.14,-118.2l-0.18 -114.97 -472.43 0zm114.6 298.41c10.67,22.92 26.99,43.83 40.38,65.32 50.26,80.73 82.5,129.02 144.09,25.83 19.36,-30.29 39.58,-60.23 57.89,-91.15l-242.36 0z"/>
   <path fill="white" d="M157.08 831.05c-26.52,1.04 -120.85,3.85 -139.78,-6.06 -28.69,-15.02 -18.89,-49.81 8.9,-57.4 23.2,-0.98 129.87,-3.98 144.15,5.1 26.14,16.59 13.6,52.11 -13.27,58.36z"/>
   <path fill="white" d="M1643.66 831.05c-24.21,0.62 -133.47,3.53 -148.4,-3.68 -26.4,-12.75 -16.03,-53.77 12.41,-59.78 24.7,-0.15 132.24,-4.12 147.46,4.98 25.29,15.11 15.81,53.1 -11.47,58.48z"/>
   <path fill="white" d="M1510.3 1336.61c-33.08,2.07 -139.71,-119.02 -144.37,-133.04 -6.83,-20.51 9.76,-31.77 26.94,-36.83 29.72,-4.5 133.74,110.47 140.97,127.72 8.19,19.56 -6,35.54 -23.54,42.15z"/>
   <path fill="white" d="M192.82 1329.34c-20.73,0.21 -42.53,-17.89 -35.17,-40.29 7.12,-21.66 113.86,-113.85 130.97,-122.31 25.36,-1.17 49.97,18.07 36.73,44.1 -8.12,15.97 -108.92,111.35 -132.53,118.5z"/>
   <path fill="white" d="M876.65 29.15c0.66,26.94 3.78,148.47 -3.93,165.08 -13.63,29.37 -57.46,17.83 -63.89,-13.81 -0.15,-27.47 -4.39,-147.09 5.32,-164.01 16.16,-28.14 56.75,-17.59 62.5,12.74z"/>
  </g>
 </g>
</svg>
