<svg width="501" height="534" viewBox="0 0 501 534" fill="none" xmlns="http://www.w3.org/2000/svg">
<path d="M491.638 356.491C496.43 354.431 501.801 359.199 499.547 364.398C495.481 373.774 480.913 409.238 477.979 441.511C476.562 457.1 480.385 475.152 485.424 490.973C490.432 506.697 496.48 519.731 499.115 525.119C501.763 530.532 495.892 535.594 490.99 533.143L391.14 483.218C378.461 490.006 316.928 518.558 179 518.558C156.399 518.558 112.441 514.825 73.9893 504.273C54.7888 499.004 36.5843 491.936 23.0723 482.526C9.55578 473.112 0.000174366 460.79 0 445.058C0 426.848 12.8427 413.472 29.6963 403.786C46.6696 394.031 69.0072 387.212 90.9336 382.423C112.937 377.618 134.893 374.781 151.316 373.145C159.536 372.326 166.39 371.806 171.195 371.491C173.598 371.333 175.491 371.226 176.786 371.159C177.434 371.125 177.932 371.101 178.271 371.086C178.441 371.078 178.571 371.072 178.659 371.068C178.703 371.066 178.737 371.065 178.761 371.064C178.772 371.064 178.781 371.063 178.787 371.063C178.79 371.063 178.793 371.062 178.795 371.062C178.797 371.07 178.806 371.251 178.974 375.412L178.799 371.062L178.84 371.06L178.88 371.059C309.782 367.921 370.095 396.739 382.332 403.472L491.638 356.491ZM384.462 413.442C382.89 414.118 380.865 414.202 379.019 413.095C374.534 410.407 317.138 377.752 179.145 381.056C179.129 381.057 179.11 381.058 179.089 381.059C179.01 381.063 178.89 381.067 178.73 381.075C178.411 381.089 177.932 381.112 177.306 381.145C176.052 381.21 174.206 381.315 171.852 381.469C167.141 381.779 160.401 382.29 152.309 383.096C136.107 384.71 114.563 387.498 93.0664 392.193C71.493 396.904 50.3302 403.46 34.6787 412.456C18.9076 421.52 10 432.269 10 445.058C10.0002 456.183 16.632 465.854 28.7871 474.32C40.9468 482.789 57.8992 489.488 76.6357 494.629C114.059 504.899 157.101 508.558 179 508.558C324.969 508.558 383.316 476.264 388.036 473.505L388.401 473.308C390.117 472.455 391.951 472.555 393.428 473.193L393.738 473.337L485.372 519.153C482.482 512.491 479 503.755 475.896 494.008C470.717 477.748 466.423 458.181 468.021 440.605C470.471 413.649 480.51 384.973 486.607 369.537L384.462 413.442ZM125.074 402.558C126.668 402.558 128.239 402.94 129.655 403.672L136.289 407.104C140.018 409.033 143.118 411.988 145.222 415.622L146.202 417.315C147.064 418.803 147.719 420.402 148.15 422.066L149.257 426.336C150.33 430.475 149.042 434.87 145.904 437.776C141.244 442.092 140.913 449.351 145.162 454.072L145.946 454.942C149.064 458.407 150.053 463.292 148.528 467.697L147.564 470.483C146.861 472.516 145.794 474.405 144.417 476.057L141.628 479.404C139.891 481.488 137.783 483.234 135.411 484.551L132.793 486.006C130.941 487.035 128.956 487.895 126.841 488.015C123.724 488.192 120.897 487.445 117.5 485.558C116.11 484.786 115.219 482.97 114.671 480.842C113.35 475.71 118.047 471.558 123.347 471.558H123.566C124.187 471.558 124.805 471.489 125.41 471.351C132.84 469.662 134.283 459.704 127.638 455.976L127.207 455.735C126.408 455.286 125.541 454.97 124.641 454.797L122.189 454.33C112.237 452.427 113.096 437.916 123.2 437.156C124.061 437.091 124.908 436.894 125.71 436.574C133.514 433.452 132.488 422.095 124.251 420.421L123.168 420.201C121.123 419.785 119.292 418.657 118.003 417.016L117.353 416.188C115.576 413.926 115.075 410.915 116.025 408.2C117.208 404.821 120.397 402.558 123.978 402.558H125.074ZM60.9834 419.95C71.6322 408.128 90.3306 408.759 100.233 421.127C108.248 431.138 107.703 445.58 98.8594 454.926C89.0971 465.243 72.8282 465.654 62.5156 455.966C52.3271 446.395 51.5923 430.376 60.9834 419.95ZM86.9619 431.752C83.5714 427.518 77.2003 427.346 73.6143 431.328C70.4497 434.842 70.6699 440.301 74.1553 443.576C77.6819 446.888 83.2224 446.717 86.5107 443.243C89.4923 440.092 89.7003 435.173 86.9619 431.752Z" fill="white"/>
<path d="M8.43945 178.491C3.64676 176.431 -1.72414 181.199 0.530273 186.398C4.59637 195.774 19.1636 231.237 22.0977 263.511C23.5148 279.1 19.6924 297.151 14.6533 312.973C9.64536 328.697 3.59759 341.731 0.961914 347.119C-1.68611 352.532 4.18469 357.594 9.08691 355.143L108.938 305.218C121.615 312.006 183.148 340.558 321.077 340.558C343.679 340.558 387.636 336.825 426.088 326.273C445.288 321.004 463.493 313.937 477.005 304.526C490.521 295.112 500.077 282.79 500.077 267.058C500.077 248.848 487.235 235.472 470.381 225.786C453.408 216.031 431.07 209.212 409.144 204.423C387.14 199.618 365.184 196.781 348.761 195.145C340.541 194.326 333.687 193.806 328.882 193.491C326.479 193.333 324.586 193.226 323.291 193.159C322.644 193.125 322.145 193.101 321.806 193.085C321.636 193.078 321.506 193.072 321.418 193.068C321.374 193.066 321.34 193.065 321.316 193.064C321.305 193.064 321.296 193.063 321.29 193.063C321.287 193.063 321.284 193.062 321.282 193.062C321.28 193.062 321.278 193.065 321.104 197.412L321.278 193.062L321.237 193.06L321.197 193.059C190.295 189.921 129.982 218.739 117.745 225.472L8.43945 178.491ZM115.615 235.442C117.187 236.118 119.212 236.202 121.059 235.095C125.544 232.407 182.94 199.752 320.933 203.056C320.948 203.057 320.967 203.058 320.988 203.059C321.067 203.063 321.187 203.067 321.347 203.075C321.666 203.089 322.145 203.112 322.771 203.145C324.025 203.21 325.871 203.315 328.226 203.469C332.936 203.779 339.677 204.29 347.769 205.096C363.97 206.71 385.515 209.498 407.011 214.193C428.584 218.904 449.747 225.46 465.398 234.456C481.17 243.52 490.077 254.269 490.077 267.058C490.077 278.184 483.445 287.854 471.29 296.32C459.13 304.789 442.178 311.488 423.441 316.629C386.018 326.899 342.976 330.558 321.077 330.558C175.107 330.558 116.76 298.264 112.041 295.505L111.676 295.308C109.96 294.455 108.127 294.555 106.649 295.193L106.339 295.337L14.7051 341.153C17.5949 334.491 21.0774 325.755 24.1816 316.008C29.3603 299.748 33.6545 280.181 32.0566 262.605C29.606 235.649 19.5673 206.973 13.4697 191.537L115.615 235.442ZM375.003 224.558C373.409 224.558 371.838 224.94 370.422 225.672L363.788 229.104C360.059 231.033 356.959 233.989 354.855 237.623L353.875 239.316C353.014 240.804 352.358 242.403 351.927 244.067L350.82 248.336C349.747 252.476 351.035 256.87 354.173 259.776C358.834 264.091 359.164 271.35 354.915 276.072L354.131 276.943C351.013 280.408 350.024 285.293 351.549 289.698L352.513 292.484C353.216 294.517 354.283 296.405 355.66 298.057L358.449 301.405C360.186 303.489 362.294 305.235 364.666 306.552L367.284 308.006C369.136 309.035 371.121 309.896 373.236 310.016C376.354 310.193 379.181 309.445 382.577 307.558C383.967 306.786 384.859 304.97 385.406 302.842C386.727 297.71 382.03 293.558 376.73 293.558H376.511C375.89 293.558 375.272 293.489 374.667 293.351C367.237 291.662 365.794 281.705 372.439 277.977L372.87 277.735C373.67 277.286 374.536 276.97 375.437 276.798L377.888 276.33C387.84 274.427 386.981 259.916 376.877 259.156C376.016 259.091 375.169 258.895 374.367 258.575C366.563 255.453 367.589 244.095 375.826 242.421L376.909 242.202C378.954 241.786 380.785 240.658 382.074 239.017L382.725 238.189C384.502 235.927 385.002 232.915 384.052 230.201C382.869 226.821 379.68 224.558 376.1 224.558H375.003ZM439.094 241.95C428.445 230.128 409.747 230.759 399.844 243.127C391.829 253.138 392.374 267.58 401.218 276.926C410.98 287.244 427.249 287.654 437.562 277.966C447.75 268.395 448.485 252.376 439.094 241.95ZM413.115 253.752C416.506 249.518 422.877 249.346 426.463 253.328C429.628 256.842 429.407 262.301 425.922 265.576C422.395 268.889 416.855 268.718 413.566 265.243C410.585 262.092 410.377 257.173 413.115 253.752Z" fill="#6D19F7"/>
<path d="M491.638 0.49078C496.43 -1.56925 501.801 3.19933 499.547 8.39801C495.481 17.7742 480.913 53.2375 477.979 85.5113C476.562 101.1 480.385 119.151 485.424 134.973C490.432 150.697 496.48 163.731 499.115 169.119C501.763 174.532 495.892 179.594 490.99 177.143L391.14 127.218C378.462 134.006 316.929 162.558 179 162.558C156.399 162.558 112.441 158.825 73.9893 148.273C54.7887 143.004 36.5843 135.936 23.0723 126.526C9.55576 117.112 0.000137292 104.79 0 89.0582C0 70.8479 12.8427 57.4717 29.6963 47.7857C46.6696 38.0309 69.0072 31.2119 90.9336 26.4234C112.937 21.6181 134.893 18.7812 151.316 17.1451C159.536 16.3262 166.39 15.8064 171.195 15.4908C173.598 15.333 175.491 15.2262 176.786 15.1587C177.434 15.125 177.932 15.1011 178.271 15.0855C178.441 15.0777 178.571 15.0717 178.659 15.0679C178.703 15.066 178.737 15.065 178.761 15.064C178.772 15.0636 178.781 15.0633 178.787 15.063C178.79 15.0629 178.793 15.0621 178.795 15.0621C178.797 15.0684 178.805 15.2319 178.974 19.4117L178.799 15.0621L178.84 15.0601L178.88 15.0591C309.782 11.9211 370.095 40.7387 382.332 47.4722L491.638 0.49078ZM384.462 57.442C382.89 58.1176 380.865 58.2017 379.019 57.0953C374.534 54.407 317.138 21.7522 179.145 25.0562C179.129 25.0569 179.11 25.0582 179.089 25.0591C179.01 25.0625 178.89 25.0674 178.73 25.0748C178.411 25.0894 177.932 25.1124 177.306 25.1451C176.052 25.2104 174.206 25.3147 171.852 25.4693C167.141 25.7787 160.401 26.2902 152.309 27.0962C136.107 28.7102 114.563 31.4984 93.0664 36.1929C71.493 40.9044 50.3302 47.4605 34.6787 56.4556C18.9076 65.5196 10 76.2685 10 89.0582C10.0001 100.183 16.632 109.854 28.7871 118.32C40.9468 126.789 57.8991 133.488 76.6357 138.629C114.059 148.899 157.101 152.558 179 152.558C324.969 152.558 383.316 120.264 388.036 117.505L388.401 117.308C390.117 116.455 391.951 116.555 393.428 117.193L393.738 117.337L485.372 163.153C482.482 156.491 479 147.755 475.896 138.008C470.717 121.748 466.423 102.181 468.021 84.605C470.471 57.6495 480.51 28.9729 486.607 13.5367L384.462 57.442ZM125.074 46.5582C126.668 46.5582 128.239 46.9401 129.655 47.6724L136.289 51.1041C140.018 53.0329 143.118 55.9882 145.222 59.6216L146.202 61.315C147.064 62.8031 147.719 64.4016 148.15 66.066L149.257 70.3355C150.33 74.4752 149.042 78.8704 145.904 81.7759C141.244 86.0916 140.913 93.3505 145.162 98.0718L145.946 98.942C149.064 102.407 150.053 107.292 148.528 111.697L147.564 114.484C146.861 116.517 145.794 118.405 144.417 120.057L141.628 123.404C139.891 125.488 137.783 127.234 135.411 128.551L132.793 130.006C130.941 131.035 128.956 131.895 126.841 132.015C123.724 132.192 120.897 131.445 117.5 129.558C116.11 128.786 115.219 126.97 114.671 124.842C113.35 119.71 118.047 115.558 123.347 115.558H123.566C124.187 115.558 124.805 115.489 125.41 115.351C132.84 113.662 134.283 103.705 127.638 99.9771L127.207 99.7349C126.408 99.2865 125.541 98.9705 124.641 98.7984L122.189 98.3296C112.237 96.4266 113.096 81.9156 123.2 81.1558C124.061 81.0911 124.908 80.8945 125.71 80.5738C133.514 77.452 132.488 66.0945 124.251 64.4214L123.168 64.2007C121.123 63.7854 119.292 62.6569 118.003 61.0162L117.353 60.188C115.576 57.9264 115.075 54.9145 116.025 52.1998C117.208 48.8205 120.397 46.5582 123.978 46.5582H125.074ZM60.9834 63.9498C71.6322 52.1275 90.3306 52.7589 100.233 65.1275C108.248 75.1381 107.703 89.5798 98.8594 98.9263C89.0971 109.243 72.8282 109.654 62.5156 99.9664C52.3271 90.3951 51.5923 74.3762 60.9834 63.9498ZM86.9619 75.7525C83.5714 71.5178 77.2003 71.3464 73.6143 75.3277C70.4497 78.8416 70.6699 84.3014 74.1553 87.5757C77.6819 90.8886 83.2224 90.7175 86.5107 87.2427C89.4923 84.0917 89.7004 79.1731 86.9619 75.7525Z" fill="white"/>
</svg>
