<?xml version="1.0" encoding="UTF-8"?>
<!DOCTYPE svg PUBLIC "-//W3C//DTD SVG 1.1//EN" "http://www.w3.org/Graphics/SVG/1.1/DTD/svg11.dtd">
<!-- Creator: CorelDRAW 2020 (64 Bit) -->
<svg xmlns="http://www.w3.org/2000/svg" xml:space="preserve" width="2025px" height="278px" version="1.1" style="shape-rendering:geometricPrecision; text-rendering:geometricPrecision; image-rendering:optimizeQuality; fill-rule:evenodd; clip-rule:evenodd"
viewBox="0 0 2024.87 277.94"
 xmlns:xlink="http://www.w3.org/1999/xlink"
 xmlns:xodm="http://www.corel.com/coreldraw/odm/2003">
 <defs>
  <style type="text/css">
   <![CDATA[
    .fil0 {fill:#EEF2F6;fill-rule:nonzero}
    .fil2 {fill:white;fill-rule:nonzero}
    .fil1 {fill:url(#id0);fill-rule:nonzero}
   ]]>
  </style>
  <linearGradient id="id0" gradientUnits="userSpaceOnUse" x1="21.89" y1="228.88" x2="23.09" y2="273.85">
   <stop offset="0" style="stop-opacity:1; stop-color:#FFF195"/>
   <stop offset="1" style="stop-opacity:1; stop-color:#FFCD01"/>
  </linearGradient>
 </defs>
 <g id="Camada_x0020_1">
  <metadata id="CorelCorpID_0Corel-Layer"/>
  <g id="_2289974862688">
   <path class="fil0" d="M1822.14 175.76c0,-14.72 2.52,-28.34 7.56,-40.88 5.05,-12.53 12.06,-23.36 21.05,-32.49 9,-9.13 19.69,-16.21 32.09,-21.26 12.4,-5.04 25.95,-7.56 40.67,-7.56 14.71,0 28.27,2.52 40.67,7.56 12.4,5.05 23.09,12.13 32.08,21.26 9,9.13 16.01,19.96 21.05,32.49 5.04,12.54 7.56,26.16 7.56,40.88 0,1.9 -0.06,3.74 -0.2,5.51 -0.14,1.77 -0.48,4.02 -1.02,6.75l-155.73 0c2.45,13.89 8.52,24.86 18.19,32.9 9.67,8.04 22.14,12.06 37.4,12.06 10.35,0 19.55,-1.91 27.59,-5.72 8.04,-3.82 14.51,-9.4 19.41,-16.76l49.05 0c-3.27,10.35 -7.9,19.69 -13.9,28 -5.99,8.31 -13.14,15.39 -21.45,21.25 -8.31,5.86 -17.58,10.36 -27.8,13.49 -10.22,3.13 -21.18,4.7 -32.9,4.7 -14.72,0 -28.27,-2.52 -40.67,-7.56 -12.4,-5.04 -23.09,-12.06 -32.09,-21.05 -8.99,-8.99 -16,-19.76 -21.05,-32.29 -5.04,-12.54 -7.56,-26.3 -7.56,-41.28zm154.91 -20.44c-3.81,-11.45 -10.35,-20.44 -19.62,-26.98 -9.26,-6.54 -20.57,-9.81 -33.92,-9.81 -13.62,0 -25.07,3.27 -34.33,9.81 -9.27,6.54 -15.67,15.53 -19.21,26.98l107.08 0z"/>
   <path class="fil0" d="M1804.57 149.19l-44.96 0c0,-9.81 -3.95,-17.71 -11.86,-23.71 -7.9,-5.99 -18.39,-8.99 -31.47,-8.99 -10.63,0 -19.41,2.25 -26.36,6.74 -6.95,4.5 -10.43,10.15 -10.43,16.97 0,6.81 3.41,12.74 10.22,17.78 6.81,5.04 15.33,10.01 25.55,14.92 10.22,4.9 21.25,10.08 33.11,15.53 11.85,5.45 22.89,11.99 33.1,19.62 10.22,7.63 18.74,16.75 25.55,27.38 6.81,10.63 10.22,23.44 10.22,38.42l-44.96 0c0,-10.08 -3.41,-18.46 -10.22,-25.13 -6.81,-6.68 -15.33,-12.74 -25.55,-18.19 -10.22,-5.45 -21.25,-10.7 -33.1,-15.74 -11.86,-5.04 -22.89,-10.83 -33.11,-17.37 -10.22,-6.54 -18.74,-14.38 -25.55,-23.5 -6.81,-9.13 -10.22,-20.37 -10.22,-33.72 0,-9.54 2.11,-18.4 6.34,-26.57 4.22,-8.18 10.08,-15.26 17.57,-21.26 7.5,-5.99 16.35,-10.62 26.57,-13.89 10.22,-3.27 21.46,-4.91 33.72,-4.91 12.81,0 24.46,1.84 34.95,5.52 10.49,3.68 19.48,8.86 26.98,15.53 7.49,6.68 13.35,14.65 17.57,23.91 4.22,9.27 6.34,19.49 6.34,30.66z"/>
   <path class="fil0" d="M1545.84 177.8l0 -26.57 44.96 0 0 53.96c0,8.72 2.52,15.53 7.56,20.43 5.04,4.91 12.06,7.36 21.05,7.36l0 44.96c-12.53,0 -23.91,-2.45 -34.13,-7.36 -10.22,-4.9 -18.46,-11.71 -24.73,-20.43 -8.99,8.72 -19.41,15.53 -31.27,20.43 -11.85,4.91 -24.72,7.36 -38.62,7.36 -13.9,0 -26.98,-2.59 -39.24,-7.77 -12.26,-5.17 -22.89,-12.26 -31.88,-21.25 -8.99,-8.99 -16.08,-19.62 -21.26,-31.88 -5.18,-12.26 -7.76,-25.34 -7.76,-39.24 0,-14.17 2.58,-27.32 7.76,-39.44 5.18,-12.13 12.27,-22.69 21.26,-31.68 8.99,-8.99 19.62,-16.08 31.88,-21.26 12.26,-5.17 25.34,-7.76 39.24,-7.76l100.14 0 0 44.96 -100.14 0c-7.63,0 -14.79,1.43 -21.46,4.29 -6.68,2.86 -12.54,6.75 -17.58,11.65 -5.04,4.91 -8.99,10.7 -11.85,17.37 -2.86,6.68 -4.29,13.97 -4.29,21.87 0,7.63 1.43,14.85 4.29,21.66 2.86,6.81 6.81,12.67 11.85,17.58 5.04,4.9 10.9,8.79 17.58,11.65 6.67,2.86 13.83,4.29 21.46,4.29 7.9,0 15.19,-1.43 21.86,-4.29 6.68,-2.86 12.47,-6.75 17.38,-11.65 4.9,-4.91 8.78,-10.77 11.65,-17.58 2.86,-6.81 4.29,-14.03 4.29,-21.66z"/>
   <path class="fil0" d="M1220.07 0l0 93.6c8.18,-6.27 17.17,-11.17 26.98,-14.71 9.81,-3.55 20.44,-5.32 31.88,-5.32 13.63,0 26.3,2.59 38.01,7.77 11.72,5.18 21.87,12.26 30.46,21.25 8.58,8.99 15.39,19.62 20.43,31.88 5.04,12.27 7.56,25.35 7.56,39.24 0,14.17 -2.59,27.32 -7.76,39.45 -5.18,12.12 -12.26,22.68 -21.26,31.67 -8.99,9 -19.62,16.08 -31.88,21.26 -12.26,5.17 -25.34,7.76 -39.24,7.76l-100.14 0 0 -44.96 100.14 0c7.63,0 14.79,-1.43 21.46,-4.29 6.68,-2.86 12.54,-6.74 17.58,-11.65 5.04,-4.9 8.99,-10.76 11.85,-17.57 2.86,-6.82 4.29,-14.04 4.29,-21.67 0,-7.9 -1.43,-15.19 -4.29,-21.86 -2.86,-6.68 -6.81,-12.47 -11.85,-17.38 -5.04,-4.9 -10.9,-8.78 -17.58,-11.65 -6.67,-2.86 -13.83,-4.29 -21.46,-4.29 -7.9,0 -15.19,1.43 -21.86,4.29 -6.68,2.87 -12.47,6.75 -17.37,11.65 -4.91,4.91 -8.79,10.7 -11.65,17.38 -2.87,6.67 -4.3,13.96 -4.3,21.86l0 26.57 -44.96 0 0 -200.28 44.96 0z"/>
   <path class="fil0" d="M844.04 175.76c0,-14.45 2.65,-27.87 7.97,-40.26 5.31,-12.4 12.53,-23.23 21.66,-32.5 9.13,-9.26 19.96,-16.48 32.5,-21.66 12.53,-5.18 25.88,-7.77 40.05,-7.77 14.44,0 27.86,2.59 40.26,7.77 12.4,5.18 23.23,12.4 32.5,21.66 9.26,9.27 16.48,20.1 21.66,32.5 5.18,12.39 7.76,25.81 7.76,40.26 0,14.17 -2.58,27.52 -7.76,40.05 -5.18,12.54 -12.4,23.37 -21.66,32.5 -9.27,9.13 -20.1,16.35 -32.5,21.66 -12.4,5.31 -25.82,7.97 -40.26,7.97 -14.17,0 -27.52,-2.66 -40.05,-7.97 -12.54,-5.31 -23.37,-12.53 -32.5,-21.66 -9.13,-9.13 -16.35,-19.96 -21.66,-32.5 -5.32,-12.53 -7.97,-25.88 -7.97,-40.05zm44.96 0c0,8.17 1.5,15.73 4.49,22.68 3,6.95 7.02,12.94 12.06,17.99 5.04,5.04 11.04,9.06 17.99,12.05 6.94,3 14.51,4.5 22.68,4.5 8.18,0 15.74,-1.5 22.69,-4.5 6.94,-2.99 13.01,-7.01 18.19,-12.05 5.17,-5.05 9.19,-11.04 12.05,-17.99 2.86,-6.95 4.29,-14.51 4.29,-22.68 0,-8.18 -1.43,-15.74 -4.29,-22.69 -2.86,-6.95 -6.88,-13.01 -12.05,-18.19 -5.18,-5.17 -11.25,-9.19 -18.19,-12.06 -6.95,-2.86 -14.51,-4.29 -22.69,-4.29 -8.17,0 -15.74,1.43 -22.68,4.29 -6.95,2.87 -12.95,6.89 -17.99,12.06 -5.04,5.18 -9.06,11.24 -12.06,18.19 -2.99,6.95 -4.49,14.51 -4.49,22.69z"/>
   <path class="fil0" d="M775.78 0l44.96 0 0 200.28 -44.96 0 0 -26.57c0,-7.9 -1.43,-15.19 -4.29,-21.86 -2.86,-6.68 -6.75,-12.47 -11.65,-17.38 -4.91,-4.9 -10.7,-8.78 -17.37,-11.65 -6.68,-2.86 -13.97,-4.29 -21.87,-4.29 -7.63,0 -14.78,1.43 -21.46,4.29 -6.68,2.87 -12.54,6.75 -17.57,11.65 -5.05,4.91 -9,10.7 -11.86,17.38 -2.86,6.67 -4.29,13.96 -4.29,21.86 0,7.63 1.43,14.85 4.29,21.67 2.86,6.81 6.81,12.67 11.86,17.57 5.03,4.91 10.89,8.79 17.57,11.65 6.68,2.86 13.83,4.29 21.46,4.29l100.14 0 0 44.96 -100.14 0c-13.9,0 -26.98,-2.59 -39.24,-7.76 -12.26,-5.18 -22.89,-12.26 -31.88,-21.26 -8.99,-8.99 -16.08,-19.55 -21.26,-31.67 -5.17,-12.13 -7.76,-25.28 -7.76,-39.45 0,-13.89 2.52,-26.97 7.56,-39.24 5.04,-12.26 11.85,-22.89 20.44,-31.88 8.58,-8.99 18.8,-16.07 30.65,-21.25 11.86,-5.18 24.46,-7.77 37.81,-7.77 11.44,0 22.07,1.77 31.88,5.32 9.81,3.54 18.8,8.44 26.98,14.71l0 -93.6z"/>
   <path class="fil0" d="M505.6 118.53c-14.16,0 -25.54,4.16 -34.12,12.47 -8.59,8.31 -12.88,19.41 -12.88,33.31l0 109.54 -44.96 0 0 -109.54c0,-13.08 2.32,-25.2 6.95,-36.38 4.63,-11.17 11.03,-20.77 19.21,-28.81 8.17,-8.04 17.85,-14.31 29.02,-18.8 11.17,-4.5 23.43,-6.75 36.78,-6.75 13.36,0 25.62,2.25 36.79,6.75 11.17,4.49 20.85,10.76 29.02,18.8 8.18,8.04 14.51,17.64 19.01,28.81 4.49,11.18 6.74,23.3 6.74,36.38l0 109.54 -44.96 0 0 -109.54c0,-13.9 -4.22,-25 -12.67,-33.31 -8.45,-8.31 -19.75,-12.47 -33.93,-12.47z"/>
   <path class="fil0" d="M187.61 175.76c0,-14.72 2.52,-28.34 7.56,-40.88 5.04,-12.53 12.06,-23.36 21.05,-32.49 8.99,-9.13 19.69,-16.21 32.09,-21.26 12.39,-5.04 25.95,-7.56 40.66,-7.56 14.72,0 28.28,2.52 40.67,7.56 12.4,5.05 23.1,12.13 32.09,21.26 8.99,9.13 16.01,19.96 21.05,32.49 5.04,12.54 7.56,26.16 7.56,40.88 0,1.9 -0.07,3.74 -0.2,5.51 -0.14,1.77 -0.48,4.02 -1.03,6.75l-155.72 0c2.45,13.89 8.51,24.86 18.19,32.9 9.67,8.04 22.14,12.06 37.39,12.06 10.36,0 19.56,-1.91 27.59,-5.72 8.04,-3.82 14.52,-9.4 19.42,-16.76l49.05 0c-3.27,10.35 -7.9,19.69 -13.9,28 -5.99,8.31 -13.15,15.39 -21.46,21.25 -8.31,5.86 -17.57,10.36 -27.79,13.49 -10.22,3.13 -21.19,4.7 -32.91,4.7 -14.71,0 -28.27,-2.52 -40.66,-7.56 -12.4,-5.04 -23.1,-12.06 -32.09,-21.05 -8.99,-8.99 -16.01,-19.76 -21.05,-32.29 -5.04,-12.54 -7.56,-26.3 -7.56,-41.28zm154.91 -20.44c-3.81,-11.45 -10.35,-20.44 -19.62,-26.98 -9.26,-6.54 -20.57,-9.81 -33.93,-9.81 -13.62,0 -25.06,3.27 -34.33,9.81 -9.26,6.54 -15.67,15.53 -19.21,26.98l107.09 0z"/>
   <path class="fil1" d="M22.49 228.87c6.43,0 11.79,2.14 16.07,6.42 4.29,4.29 6.43,9.64 6.43,16.07 0,6.43 -2.14,11.78 -6.43,16.07 -4.28,4.28 -9.64,6.43 -16.07,6.43 -6.42,0 -11.78,-2.15 -16.06,-6.43 -4.29,-4.29 -6.43,-9.64 -6.43,-16.07 0,-6.43 2.14,-11.78 6.43,-16.07 4.28,-4.28 9.64,-6.42 16.06,-6.42z"/>
   <path class="fil0" d="M170.03 149.19l-44.96 0c0,-9.81 -3.95,-17.71 -11.85,-23.71 -7.9,-5.99 -18.39,-8.99 -31.47,-8.99 -10.63,0 -19.42,2.25 -26.37,6.74 -6.95,4.5 -10.42,10.15 -10.42,16.97 0,6.81 3.41,12.74 10.22,17.78 6.81,5.04 15.33,10.01 25.55,14.92 10.21,4.9 21.25,10.08 33.1,15.53 11.86,5.45 22.89,11.99 33.11,19.62 10.22,7.63 18.73,16.75 25.55,27.38 6.81,10.63 10.22,23.44 10.22,38.42l-44.97 0c0,-10.08 -3.4,-18.46 -10.22,-25.13 -6.81,-6.68 -15.32,-12.74 -25.54,-18.19 -10.22,-5.45 -21.25,-10.7 -33.11,-15.74 -11.85,-5.04 -22.89,-10.83 -33.11,-17.37 -10.22,-6.54 -18.73,-14.38 -25.54,-23.5 -6.81,-9.13 -10.22,-20.37 -10.22,-33.72 0,-9.54 2.11,-18.4 6.33,-26.57 4.23,-8.18 10.09,-15.26 17.58,-21.26 7.49,-5.99 16.35,-10.62 26.57,-13.89 10.22,-3.27 21.46,-4.91 33.72,-4.91 12.81,0 24.45,1.84 34.95,5.52 10.49,3.68 19.48,8.86 26.97,15.53 7.5,6.68 13.35,14.65 17.58,23.91 4.22,9.27 6.33,19.49 6.33,30.66z"/>
   <path class="fil2" d="M1663.14 228.87c6.43,0 11.79,2.14 16.07,6.42 4.28,4.29 6.43,9.64 6.43,16.07 0,6.43 -2.15,11.78 -6.43,16.07 -4.28,4.28 -9.64,6.43 -16.07,6.43 -6.42,0 -11.78,-2.15 -16.07,-6.43 -4.28,-4.29 -6.42,-9.64 -6.42,-16.07 0,-6.43 2.14,-11.78 6.42,-16.07 4.29,-4.28 9.65,-6.42 16.07,-6.42z"/>
  </g>
 </g>
</svg>
